<svg width="32" height="32" viewBox="0 0 32 32" fill="none" xmlns="http://www.w3.org/2000/svg">
<circle cx="16" cy="16" r="16" fill="#56BCB3"/>
<path d="M18.9221 17.3529C18.6758 17.6627 18.5105 17.8848 18.3278 18.0949C18.1005 18.3563 17.8749 18.6207 17.6254 18.8609C16.7911 19.6603 15.3179 19.7237 14.4852 19.0075C13.5286 18.1825 13.4062 16.883 14.3041 15.9779C15.7629 14.5062 17.2821 13.0889 18.7775 11.6489C19.019 11.4162 19.2717 11.194 19.5053 10.9538C19.6674 10.7861 19.8104 10.771 20.0218 10.8888C21.8954 11.9435 23.173 13.45 23.7261 15.4506C24.6652 18.8519 23.1269 22.1217 20.071 23.9213C15.7105 26.4886 9.85291 24.2205 8.43064 19.7857C7.4851 16.8407 8.07467 14.1723 10.4171 11.9465C12.2493 10.2058 14.1023 8.4863 15.9202 6.732C16.4431 6.22581 17.0374 6.00218 17.7557 6.00067C19.4354 6.00067 21.1151 5.99916 22.7948 6.00067C22.8441 6.00067 22.8933 6.02183 22.9839 6.04147C22.9299 6.12004 22.9013 6.18502 22.852 6.23035C19.82 9.10732 16.7847 11.9798 13.7526 14.8583C12.4496 16.0943 12.1572 17.6431 13.0153 19.0392C13.7336 20.2073 14.8825 20.7603 16.2746 20.6636C17.5904 20.5714 18.493 19.8416 18.9046 18.6328C19.0302 18.2626 19.1128 17.8637 18.9205 17.3514L18.9221 17.3529Z" fill="white"/>
</svg>
